<svg width="648" height="645" viewBox="0 0 648 645" fill="none" xmlns="http://www.w3.org/2000/svg">
<path d="M542 183.743L506 219.212L505.861 219.348H326.791C280.725 219.348 241.525 248.07 226.679 288.326H390.579V288.235H462.903L462.81 288.326L433.723 316.911L426.811 323.704L433.862 330.633L463.228 359.492H390.579V359.355L390.44 359.492H226.633C241.432 399.793 280.679 428.606 326.791 428.606H469.166V431.114C450.749 454.684 426.44 473.512 398.373 485.502C376.523 494.848 352.399 500 327.07 500C268.014 500 215.638 471.917 183.025 428.606C167.809 408.455 156.907 384.977 151.619 359.492C149.253 348.049 148 336.15 148 324.023C148 311.805 149.253 299.906 151.665 288.371C157 262.932 167.855 239.545 183.025 219.394C215.638 176.083 268.014 148 327.07 148H505.769L506.047 148.274L513.609 155.75L542 183.743Z" fill="url(#paint0_linear_4_2)"/>
<path d="M648 322.639C648 334.86 647.302 346.943 645.999 358.792C643.253 383.235 637.808 406.795 629.943 429.24C602.019 508.936 543.659 574.319 468.731 611.587C446.392 622.694 422.61 631.29 397.712 637.006C374.303 642.397 350.916 642.231 325.878 642.231C184.864 642.231 63.9323 555.034 19.8597 429.24C11.9945 406.795 6.54944 383.189 3.80363 358.792C2.45399 346.943 1.80243 334.86 1.80243 322.639C1.80243 310.371 2.50053 298.242 3.85017 286.3C6.59598 261.95 12.0411 238.389 19.9062 215.991C28.9814 190.061 41.3143 165.664 56.3464 143.22C73.9848 116.918 95.3929 93.404 119.779 73.3756C175.533 27.5565 246.971 0 324.878 0C349.916 0 374.303 2.83464 397.712 8.22512C422.61 13.9409 446.392 22.5378 468.731 33.644C490.697 44.5644 511.268 57.9012 530.023 73.3291H323.482C256.139 73.3291 195.08 99.9562 150.17 143.173C128.575 163.945 110.751 188.574 97.7664 215.945C87.3881 237.785 80.0815 261.438 76.4514 286.253C74.7295 298.103 73.7987 310.232 73.7987 322.592C73.7987 334.86 74.6829 346.943 76.4049 358.746C80.0349 383.607 87.3416 407.307 97.7199 429.194C137.744 513.49 223.748 571.809 323.435 571.809C349.265 571.809 374.21 567.906 397.619 560.61C423.309 552.617 447.23 540.628 468.638 525.293C502.984 500.711 530.861 467.671 549.104 429.147C559.529 407.214 566.836 383.561 570.419 358.699H489.673V358.421L453.606 322.407L489.72 286.393V286.253H645.906C647.302 298.242 648 310.371 648 322.639Z" fill="url(#paint1_linear_4_2)"/>
<path d="M1 645L4.18203 345.606L4.16347 349.599L4.34772 351.515L4.55677 353.549L5.50282 361.544L6.03941 365.467L6.62783 369.409L7.96072 377.331L9.46447 385.093L11.2142 393.058L13.1415 400.884L15.2811 408.716L19.3952 421.964L24.0388 434.911L29.1349 447.416L34.8064 459.805L41.2358 472.382L48.2529 484.734L55.6422 496.513L63.477 507.888L70.9966 517.906L79.1502 527.924L88.1887 538.145L97.6326 547.961L103.464 553.629L109.522 559.07L115.807 564.744L122.332 570.179L128.963 575.414L135.593 580.378L142.486 585.265L149.478 589.954L156.812 594.595L164.296 599.055L171.723 603.216L179.297 607.06L187.021 611.004L195.16 614.739L203.443 618.264L211.755 621.531L218.963 624.151L226.101 626.555L233.2 628.764L240.27 630.786L247.412 632.652L254.506 634.334L264.46 636.41L269.103 637.267L276.13 638.431L283.265 639.451L297.42 640.997L311.174 641.903L325.878 642.231L1 645Z" fill="url(#paint2_linear_4_2)"/>
<defs>
<linearGradient id="paint0_linear_4_2" x1="307.351" y1="547.914" x2="544.261" y2="155.054" gradientUnits="userSpaceOnUse">
<stop stop-color="#66FC26"/>
<stop offset="0.95238" stop-color="#173709"/>
</linearGradient>
<linearGradient id="paint1_linear_4_2" x1="647.263" y1="-3.99843e-05" x2="4.16372" y2="656.101" gradientUnits="userSpaceOnUse">
<stop stop-color="#66FC26"/>
<stop offset="0.5" stop-color="#46B418"/>
<stop offset="1" stop-color="#091B02"/>
</linearGradient>
<linearGradient id="paint2_linear_4_2" x1="647.263" y1="-3.99843e-05" x2="4.16372" y2="656.101" gradientUnits="userSpaceOnUse">
<stop stop-color="#66FC26"/>
<stop offset="0.5" stop-color="#46B418"/>
<stop offset="1" stop-color="#091B02"/>
</linearGradient>
</defs>
</svg>
