<svg width="3038" height="2447" viewBox="0 0 3038 2447" fill="none" xmlns="http://www.w3.org/2000/svg">
<rect width="3038" height="2447" fill="#1E1E1E"/>
<path d="M132.002 100.146H1563V2H0V1119H1308.34V1006.83H132.002V100.146Z" fill="white"/>
<path d="M132.002 2348.77H1563V2447H0V1329H1308.34V1441.27H132.002V2348.77Z" fill="white"/>
<path d="M1748 1115H3020.83H3022V1000H1748V1115Z" fill="#E4B026"/>
<path d="M1746.84 1423.47V1323H3028V2210.91C2676.15 2554.39 1874.26 2478.68 1496.69 2210.91C1119.12 1943.14 1056 1442.17 1056 1442.17H1188.09C1206.79 1701.53 1360.06 1967.81 1629.95 2158.33C1899.84 2348.86 2595.62 2433.81 2929.81 2137.31V1423.47H1746.84Z" fill="#E4B026"/>
<path d="M1059 1007H1189.84C1304.1 605.861 1422.53 418.826 1826.53 219.467C2068.36 133.002 2582.39 -16.5589 2937.53 408.755H3038C2874.45 12.6522 2282.15 -103.024 1780.97 94.4435C1354.16 291.731 1151.29 572.338 1059 1007Z" fill="#E4B026"/>
</svg>
